# Blender 3.6.2
# www.blender.org
mtllib Bump.mtl
o Cube
v -1.000000 -1.414214 0.000000
v -1.000000 0.000000 6.414214
v -1.000000 -0.017246 -6.396967
v -1.000000 1.414214 0.000000
v 1.000000 -1.414214 0.000000
v 1.000000 0.000000 6.414214
v 1.000000 -0.017246 -6.396967
v 1.000000 1.414214 0.000000
v 4.000000 0.000000 0.000000
v -4.000000 0.000000 0.000000
vn -0.4179 0.8866 -0.1984
vn -0.0000 0.9759 -0.2184
vn 0.4182 0.8871 0.1956
vn -0.0000 -0.9765 0.2153
vn -0.0000 -0.9770 -0.2134
vn -0.0000 0.9765 0.2153
vn -0.4182 0.8871 0.1956
vn -0.4183 -0.8874 -0.1938
vn -0.4182 -0.8871 0.1956
vn 0.4179 0.8866 -0.1984
vn 0.4182 -0.8871 0.1956
vn 0.4183 -0.8874 -0.1938
vt 0.000000 0.000000
vt 0.375000 0.246951
vt 0.625000 0.250000
vt 0.625000 0.500000
vt 0.375000 0.503049
vt 0.625000 0.750000
vt 0.375000 0.750000
vt 0.625000 1.000000
vt 0.375000 1.000000
vt 0.125000 0.503049
vt 0.125000 0.750000
vt 0.875000 0.500000
vt 0.875000 0.750000
s 0
f 4/1/1 3/2/1 10/1/1
f 3/2/2 4/3/2 8/4/2 7/5/2
f 8/4/3 6/6/3 9/1/3
f 5/7/4 6/6/4 2/8/4 1/9/4
f 3/10/5 7/5/5 5/7/5 1/11/5
f 8/4/6 4/12/6 2/13/6 6/6/6
f 10/1/7 2/1/7 4/1/7
f 1/11/8 10/1/8 3/2/8
f 2/1/9 10/1/9 1/11/9
f 8/4/10 9/1/10 7/5/10
f 5/7/11 9/1/11 6/6/11
f 7/5/12 9/1/12 5/7/12
