# Blender 3.6.2
# www.blender.org
mtllib CarBody.mtl
o Cube
v 0.500000 0.250000 1.000000
v 0.500000 0.250000 -1.000000
v 0.500000 -0.250000 1.000000
v 0.500000 -0.250000 -1.000000
v -0.500000 0.250000 1.000000
v -0.500000 0.250000 -1.000000
v -0.500000 -0.250000 1.000000
v -0.500000 -0.250000 -1.000000
vn -0.0000 -0.0000 1.0000
vn -0.0000 -1.0000 -0.0000
vn -1.0000 -0.0000 -0.0000
vn -0.0000 -0.0000 -1.0000
vn 1.0000 -0.0000 -0.0000
vn -0.0000 1.0000 -0.0000
vt 0.625000 0.500000
vt 0.875000 0.500000
vt 0.875000 0.750000
vt 0.625000 0.750000
vt 0.375000 0.750000
vt 0.625000 1.000000
vt 0.375000 1.000000
vt 0.375000 0.000000
vt 0.625000 0.000000
vt 0.625000 0.250000
vt 0.375000 0.250000
vt 0.125000 0.500000
vt 0.375000 0.500000
vt 0.125000 0.750000
s 0
usemtl Material
f 1/1/1 5/2/1 7/3/1 3/4/1
f 4/5/2 3/4/2 7/6/2 8/7/2
f 8/8/3 7/9/3 5/10/3 6/11/3
f 6/12/4 2/13/4 4/5/4 8/14/4
f 2/13/5 1/1/5 3/4/5 4/5/5
f 6/11/6 5/10/6 1/1/6 2/13/6
o Cylinder
v 0.000000 0.750000 -1.000000
v 0.000000 0.750000 1.000000
v 0.097545 0.740393 -1.000000
v 0.097545 0.740393 1.000000
v 0.191342 0.711940 -1.000000
v 0.191342 0.711940 1.000000
v 0.277785 0.665735 -1.000000
v 0.277785 0.665735 1.000000
v 0.353553 0.603553 -1.000000
v 0.353553 0.603553 1.000000
v 0.415735 0.527785 -1.000000
v 0.415735 0.527785 1.000000
v 0.461940 0.441342 -1.000000
v 0.461940 0.441342 1.000000
v 0.490393 0.347545 -1.000000
v 0.490393 0.347545 1.000000
v 0.500000 0.250000 -1.000000
v 0.500000 0.250000 1.000000
v -0.500000 0.250000 -1.000000
v -0.500000 0.250000 1.000000
v -0.490393 0.347545 -1.000000
v -0.490393 0.347545 1.000000
v -0.461940 0.441342 -1.000000
v -0.461940 0.441342 1.000000
v -0.415735 0.527785 -1.000000
v -0.415735 0.527785 1.000000
v -0.353553 0.603553 -1.000000
v -0.353553 0.603553 1.000000
v -0.277785 0.665735 -1.000000
v -0.277785 0.665735 1.000000
v -0.191342 0.711940 -1.000000
v -0.191342 0.711940 1.000000
v -0.097545 0.740393 -1.000000
v -0.097545 0.740393 1.000000
vn -0.0000 1.0000 -0.0000
vn 0.1951 0.9808 -0.0000
vn 0.3827 0.9239 -0.0000
vn 0.5556 0.8315 -0.0000
vn 0.7071 0.7071 -0.0000
vn 0.8315 0.5556 -0.0000
vn 0.9239 0.3827 -0.0000
vn 0.9808 0.1951 -0.0000
vn 0.9952 0.0980 -0.0000
vn -0.0000 -0.0000 -1.0000
vn -0.0000 -0.0000 1.0000
vn -0.0000 -1.0000 -0.0000
vn -0.9952 0.0980 -0.0000
vn -0.9808 0.1951 -0.0000
vn -0.9239 0.3827 -0.0000
vn -0.8315 0.5556 -0.0000
vn -0.7071 0.7071 -0.0000
vn -0.5556 0.8315 -0.0000
vn -0.3827 0.9239 -0.0000
vn -0.1951 0.9808 -0.0000
vt 1.000000 0.500000
vt 1.000000 1.000000
vt 0.968750 1.000000
vt 0.968750 0.500000
vt 0.937500 1.000000
vt 0.937500 0.500000
vt 0.906250 1.000000
vt 0.906250 0.500000
vt 0.875000 1.000000
vt 0.875000 0.500000
vt 0.843750 1.000000
vt 0.843750 0.500000
vt 0.812500 1.000000
vt 0.812500 0.500000
vt 0.781250 1.000000
vt 0.781250 0.500000
vt 0.750000 1.000000
vt 0.750000 0.500000
vt 0.000000 0.500000
vt 0.250000 0.500000
vt 0.218750 0.500000
vt 0.187500 0.500000
vt 0.156250 0.500000
vt 0.125000 0.500000
vt 0.093750 0.500000
vt 0.062500 0.500000
vt 0.031250 0.500000
vt 0.000000 1.000000
vt 0.031250 1.000000
vt 0.062500 1.000000
vt 0.093750 1.000000
vt 0.125000 1.000000
vt 0.156250 1.000000
vt 0.187500 1.000000
vt 0.218750 1.000000
vt 0.250000 1.000000
s 1
f 9/15/7 10/16/7 12/17/8 11/18/8
f 11/18/8 12/17/8 14/19/9 13/20/9
f 13/20/9 14/19/9 16/21/10 15/22/10
f 15/22/10 16/21/10 18/23/11 17/24/11
f 17/24/11 18/23/11 20/25/12 19/26/12
f 19/26/12 20/25/12 22/27/13 21/28/13
f 21/28/13 22/27/13 24/29/14 23/30/14
f 23/30/14 24/29/14 26/31/15 25/32/15
f 9/33/16 11/18/16 13/20/16 15/22/16 17/24/16 19/26/16 21/28/16 23/30/16 25/32/16 27/34/16 29/35/16 31/36/16 33/37/16 35/38/16 37/39/16 39/40/16 41/41/16
f 12/17/17 10/42/17 42/43/17 40/44/17 38/45/17 36/46/17 34/47/17 32/48/17 30/49/17 28/50/17 26/31/17 24/29/17 22/27/17 20/25/17 18/23/17 16/21/17 14/19/17
f 25/32/18 26/31/18 28/50/18 27/34/18
f 27/34/19 28/50/19 30/49/20 29/35/20
f 29/35/20 30/49/20 32/48/21 31/36/21
f 31/36/21 32/48/21 34/47/22 33/37/22
f 33/37/22 34/47/22 36/46/23 35/38/23
f 35/38/23 36/46/23 38/45/24 37/39/24
f 37/39/24 38/45/24 40/44/25 39/40/25
f 39/40/25 40/44/25 42/43/26 41/41/26
f 41/41/26 42/43/26 10/42/7 9/33/7
o Cylinder.001
v 0.000000 0.750000 1.000000
v 0.097545 0.740393 1.000000
v 0.191342 0.711940 1.000000
v 0.277785 0.665735 1.000000
v 0.353553 0.603553 1.000000
v 0.415735 0.527785 1.000000
v 0.461940 0.441342 1.000000
v 0.490393 0.347545 1.000000
v 0.500000 0.250000 1.000000
v -0.500000 0.250000 1.000000
v 0.000000 -0.250000 1.750000
v -0.490393 0.347545 1.000000
v -0.461940 0.441342 1.000000
v -0.415735 0.527785 1.000000
v -0.353553 0.603553 1.000000
v -0.277785 0.665735 1.000000
v -0.191342 0.711940 1.000000
v -0.097545 0.740393 1.000000
vn -0.0000 0.6000 0.8000
vn -0.0000 0.4850 0.8745
vn 0.1146 0.5925 0.7974
vn 0.2290 0.5698 0.7892
vn 0.3427 0.5308 0.7751
vn 0.4547 0.4741 0.7539
vn 0.5630 0.3977 0.7245
vn 0.6642 0.2994 0.6850
vn 0.7529 0.1776 0.6338
vn 0.8043 0.0792 0.5890
vn -0.0000 -0.0000 -1.0000
vn -0.0000 -0.8321 -0.5547
vn -0.8043 0.0792 0.5890
vn -0.7529 0.1776 0.6338
vn -0.6642 0.2994 0.6850
vn -0.5630 0.3977 0.7245
vn -0.4547 0.4741 0.7539
vn -0.3427 0.5308 0.7751
vn -0.2290 0.5698 0.7892
vn -0.1146 0.5925 0.7974
vt 1.000000 0.500000
vt 0.968750 1.000000
vt 0.968750 0.500000
vt 0.937500 1.000000
vt 0.937500 0.500000
vt 0.906250 1.000000
vt 0.906250 0.500000
vt 0.875000 1.000000
vt 0.875000 0.500000
vt 0.843750 1.000000
vt 0.843750 0.500000
vt 0.812500 1.000000
vt 0.812500 0.500000
vt 0.781250 1.000000
vt 0.781250 0.500000
vt 0.750000 1.000000
vt 0.750000 0.500000
vt 0.000000 0.500000
vt 0.250000 0.500000
vt 0.218750 0.500000
vt 0.187500 0.500000
vt 0.156250 0.500000
vt 0.125000 0.500000
vt 0.093750 0.500000
vt 0.062500 0.500000
vt 0.031250 0.500000
vt 0.250000 1.000000
vt 0.218750 1.000000
vt 0.187500 1.000000
vt 0.156250 1.000000
vt 0.125000 1.000000
vt 0.093750 1.000000
vt 0.062500 1.000000
vt 0.031250 1.000000
vt 0.000000 1.000000
s 1
f 43/51/27 53/52/28 44/53/29
f 44/53/29 53/54/28 45/55/30
f 45/55/30 53/56/28 46/57/31
f 46/57/31 53/58/28 47/59/32
f 47/59/32 53/60/28 48/61/33
f 48/61/33 53/62/28 49/63/34
f 49/63/34 53/64/28 50/65/35
f 50/65/35 53/66/28 51/67/36
f 43/68/37 44/53/37 45/55/37 46/57/37 47/59/37 48/61/37 49/63/37 50/65/37 51/67/37 52/69/37 54/70/37 55/71/37 56/72/37 57/73/37 58/74/37 59/75/37 60/76/37
f 51/67/38 53/77/38 52/69/38
f 52/69/39 53/78/28 54/70/40
f 54/70/40 53/79/28 55/71/41
f 55/71/41 53/80/28 56/72/42
f 56/72/42 53/81/28 57/73/43
f 57/73/43 53/82/28 58/74/44
f 58/74/44 53/83/28 59/75/45
f 59/75/45 53/84/28 60/76/46
f 60/76/46 53/85/28 43/68/27
o Cube.001
v 0.000000 -0.250000 1.750000
v 0.500000 0.250000 1.000000
v 0.500000 -0.250000 1.000000
v -0.500000 0.250000 1.000000
v -0.500000 -0.250000 1.000000
v 0.000000 -0.250000 1.000000
vn -0.8321 -0.0000 0.5547
vn -0.0000 -0.0000 -1.0000
vn 0.8321 -0.0000 0.5547
vn -0.0000 0.8321 0.5547
vn -0.0000 -1.0000 -0.0000
vt 0.375000 0.000000
vt 0.625000 0.250000
vt 0.375000 0.250000
vt 0.125000 0.500000
vt 0.375000 0.500000
vt 0.375000 0.750000
vt 0.250000 0.750000
vt 0.125000 0.750000
vt 0.625000 0.750000
vt 0.625000 0.500000
vt 0.625000 0.875000
vt 0.375000 0.875000
vt 0.625000 1.000000
vt 0.375000 1.000000
s 0
usemtl Material.002
f 65/86/47 61/87/47 64/88/47
f 64/89/48 62/90/48 63/91/48 66/92/48 65/93/48
f 62/90/49 61/94/49 63/91/49
f 64/88/50 61/95/50 62/90/50
f 63/91/51 61/96/51 66/97/51
f 66/97/51 61/98/51 65/99/51
